<mxfile host="app.diagrams.net" modified="2022-11-24T09:37:52.250Z" agent="5.0 (Windows NT 10.0; Win64; x64) AppleWebKit/537.36 (KHTML, like Gecko) Chrome/107.0.0.0 Safari/537.36" etag="mk1CAk2vE971dVqCFNTH" version="20.6.0" type="github">
  <diagram id="C5RBs43oDa-KdzZeNtuy" name="Page-1">
    <mxGraphModel dx="868" dy="460" grid="1" gridSize="10" guides="1" tooltips="1" connect="1" arrows="1" fold="1" page="1" pageScale="1" pageWidth="827" pageHeight="1169" math="0" shadow="0">
      <root>
        <mxCell id="WIyWlLk6GJQsqaUBKTNV-0" />
        <mxCell id="WIyWlLk6GJQsqaUBKTNV-1" parent="WIyWlLk6GJQsqaUBKTNV-0" />
        <mxCell id="WIyWlLk6GJQsqaUBKTNV-2" value="" style="rounded=0;html=1;jettySize=auto;orthogonalLoop=1;fontSize=11;endArrow=block;endFill=0;endSize=8;strokeWidth=1;shadow=0;labelBackgroundColor=none;edgeStyle=orthogonalEdgeStyle;entryX=0.5;entryY=0;entryDx=0;entryDy=0;" parent="WIyWlLk6GJQsqaUBKTNV-1" source="WIyWlLk6GJQsqaUBKTNV-3" target="dPiHLaE4yrhhuv18jYnp-0" edge="1">
          <mxGeometry relative="1" as="geometry">
            <mxPoint x="180" y="170" as="targetPoint" />
          </mxGeometry>
        </mxCell>
        <mxCell id="WIyWlLk6GJQsqaUBKTNV-3" value="Start With Filling DO Form by&lt;br&gt;&lt;b&gt;USER&lt;/b&gt;" style="rounded=1;whiteSpace=wrap;html=1;fontSize=12;glass=0;strokeWidth=1;shadow=0;" parent="WIyWlLk6GJQsqaUBKTNV-1" vertex="1">
          <mxGeometry x="80" y="80" width="200" height="40" as="geometry" />
        </mxCell>
        <mxCell id="dPiHLaE4yrhhuv18jYnp-2" value="" style="edgeStyle=orthogonalEdgeStyle;rounded=0;orthogonalLoop=1;jettySize=auto;html=1;" edge="1" parent="WIyWlLk6GJQsqaUBKTNV-1" source="dPiHLaE4yrhhuv18jYnp-0" target="dPiHLaE4yrhhuv18jYnp-1">
          <mxGeometry relative="1" as="geometry" />
        </mxCell>
        <mxCell id="dPiHLaE4yrhhuv18jYnp-0" value="Fill the Details and Items Here" style="ellipse;whiteSpace=wrap;html=1;" vertex="1" parent="WIyWlLk6GJQsqaUBKTNV-1">
          <mxGeometry x="75" y="160" width="210" height="50" as="geometry" />
        </mxCell>
        <mxCell id="dPiHLaE4yrhhuv18jYnp-5" value="" style="edgeStyle=orthogonalEdgeStyle;rounded=0;orthogonalLoop=1;jettySize=auto;html=1;" edge="1" parent="WIyWlLk6GJQsqaUBKTNV-1" source="dPiHLaE4yrhhuv18jYnp-1" target="dPiHLaE4yrhhuv18jYnp-4">
          <mxGeometry relative="1" as="geometry">
            <Array as="points">
              <mxPoint x="414" y="290" />
            </Array>
          </mxGeometry>
        </mxCell>
        <mxCell id="dPiHLaE4yrhhuv18jYnp-1" value="We Don&#39;t Apply Any&lt;br&gt;Credit Terms &amp;amp; Credit Limit&lt;br&gt;Validation Here" style="ellipse;whiteSpace=wrap;html=1;" vertex="1" parent="WIyWlLk6GJQsqaUBKTNV-1">
          <mxGeometry x="75" y="250" width="210" height="80" as="geometry" />
        </mxCell>
        <mxCell id="dPiHLaE4yrhhuv18jYnp-9" value="" style="edgeStyle=orthogonalEdgeStyle;rounded=0;orthogonalLoop=1;jettySize=auto;html=1;" edge="1" parent="WIyWlLk6GJQsqaUBKTNV-1" source="dPiHLaE4yrhhuv18jYnp-4" target="dPiHLaE4yrhhuv18jYnp-8">
          <mxGeometry relative="1" as="geometry" />
        </mxCell>
        <mxCell id="dPiHLaE4yrhhuv18jYnp-4" value="Save DO Details&lt;br&gt;Without any Stock Check and Validations" style="ellipse;whiteSpace=wrap;html=1;" vertex="1" parent="WIyWlLk6GJQsqaUBKTNV-1">
          <mxGeometry x="309" y="310" width="210" height="80" as="geometry" />
        </mxCell>
        <mxCell id="dPiHLaE4yrhhuv18jYnp-38" style="edgeStyle=orthogonalEdgeStyle;rounded=0;orthogonalLoop=1;jettySize=auto;html=1;exitX=0.5;exitY=1;exitDx=0;exitDy=0;entryX=0.5;entryY=0;entryDx=0;entryDy=0;" edge="1" parent="WIyWlLk6GJQsqaUBKTNV-1" source="dPiHLaE4yrhhuv18jYnp-8" target="dPiHLaE4yrhhuv18jYnp-10">
          <mxGeometry relative="1" as="geometry" />
        </mxCell>
        <mxCell id="dPiHLaE4yrhhuv18jYnp-8" value="Items Details and Other DO Details will be saved in Temporary Table from Where we can show that&lt;br&gt;on another Form&amp;nbsp;" style="whiteSpace=wrap;html=1;" vertex="1" parent="WIyWlLk6GJQsqaUBKTNV-1">
          <mxGeometry x="124" y="430" width="580" height="60" as="geometry" />
        </mxCell>
        <mxCell id="dPiHLaE4yrhhuv18jYnp-40" value="" style="edgeStyle=orthogonalEdgeStyle;rounded=0;orthogonalLoop=1;jettySize=auto;html=1;fontSize=12;fontColor=#000000;" edge="1" parent="WIyWlLk6GJQsqaUBKTNV-1" source="dPiHLaE4yrhhuv18jYnp-10" target="dPiHLaE4yrhhuv18jYnp-39">
          <mxGeometry relative="1" as="geometry" />
        </mxCell>
        <mxCell id="dPiHLaE4yrhhuv18jYnp-10" value="" style="shape=table;startSize=0;container=1;collapsible=0;childLayout=tableLayout;" vertex="1" parent="WIyWlLk6GJQsqaUBKTNV-1">
          <mxGeometry x="29" y="520" width="770" height="110" as="geometry" />
        </mxCell>
        <mxCell id="dPiHLaE4yrhhuv18jYnp-11" value="" style="shape=tableRow;horizontal=0;startSize=0;swimlaneHead=0;swimlaneBody=0;top=0;left=0;bottom=0;right=0;collapsible=0;dropTarget=0;fillColor=none;points=[[0,0.5],[1,0.5]];portConstraint=eastwest;" vertex="1" parent="dPiHLaE4yrhhuv18jYnp-10">
          <mxGeometry width="770" height="30" as="geometry" />
        </mxCell>
        <mxCell id="dPiHLaE4yrhhuv18jYnp-12" value="DOID" style="shape=partialRectangle;html=1;whiteSpace=wrap;connectable=0;overflow=hidden;fillColor=none;top=0;left=0;bottom=0;right=0;pointerEvents=1;fontStyle=1;fontSize=12;horizontal=1;labelBackgroundColor=none;fontColor=#000000;" vertex="1" parent="dPiHLaE4yrhhuv18jYnp-11">
          <mxGeometry width="60" height="30" as="geometry">
            <mxRectangle width="60" height="30" as="alternateBounds" />
          </mxGeometry>
        </mxCell>
        <mxCell id="dPiHLaE4yrhhuv18jYnp-13" value="CustName" style="shape=partialRectangle;html=1;whiteSpace=wrap;connectable=0;overflow=hidden;fillColor=none;top=0;left=0;bottom=0;right=0;pointerEvents=1;fontStyle=1;fontSize=12;horizontal=1;labelBackgroundColor=none;fontColor=#000000;" vertex="1" parent="dPiHLaE4yrhhuv18jYnp-11">
          <mxGeometry x="60" width="90" height="30" as="geometry">
            <mxRectangle width="90" height="30" as="alternateBounds" />
          </mxGeometry>
        </mxCell>
        <mxCell id="dPiHLaE4yrhhuv18jYnp-14" value="DODate" style="shape=partialRectangle;html=1;whiteSpace=wrap;connectable=0;overflow=hidden;fillColor=none;top=0;left=0;bottom=0;right=0;pointerEvents=1;fontStyle=1;fontSize=12;horizontal=1;labelBackgroundColor=none;fontColor=#000000;" vertex="1" parent="dPiHLaE4yrhhuv18jYnp-11">
          <mxGeometry x="150" width="80" height="30" as="geometry">
            <mxRectangle width="80" height="30" as="alternateBounds" />
          </mxGeometry>
        </mxCell>
        <mxCell id="dPiHLaE4yrhhuv18jYnp-15" value="Total Amount" style="shape=partialRectangle;html=1;whiteSpace=wrap;connectable=0;overflow=hidden;fillColor=none;top=0;left=0;bottom=0;right=0;pointerEvents=1;fontStyle=1;fontSize=12;horizontal=1;labelBackgroundColor=none;fontColor=#000000;" vertex="1" parent="dPiHLaE4yrhhuv18jYnp-11">
          <mxGeometry x="230" width="110" height="30" as="geometry">
            <mxRectangle width="110" height="30" as="alternateBounds" />
          </mxGeometry>
        </mxCell>
        <mxCell id="dPiHLaE4yrhhuv18jYnp-16" value="Available Credit Limit" style="shape=partialRectangle;html=1;whiteSpace=wrap;connectable=0;overflow=hidden;fillColor=none;top=0;left=0;bottom=0;right=0;pointerEvents=1;fontStyle=1;fontSize=12;horizontal=1;labelBackgroundColor=none;fontColor=#000000;" vertex="1" parent="dPiHLaE4yrhhuv18jYnp-11">
          <mxGeometry x="340" width="150" height="30" as="geometry">
            <mxRectangle width="150" height="30" as="alternateBounds" />
          </mxGeometry>
        </mxCell>
        <mxCell id="dPiHLaE4yrhhuv18jYnp-17" value="Balance Credit Limit" style="shape=partialRectangle;html=1;whiteSpace=wrap;connectable=0;overflow=hidden;fillColor=none;top=0;left=0;bottom=0;right=0;pointerEvents=1;fontStyle=1;fontSize=12;horizontal=1;labelBackgroundColor=none;fontColor=#000000;" vertex="1" parent="dPiHLaE4yrhhuv18jYnp-11">
          <mxGeometry x="490" width="120" height="30" as="geometry">
            <mxRectangle width="120" height="30" as="alternateBounds" />
          </mxGeometry>
        </mxCell>
        <mxCell id="dPiHLaE4yrhhuv18jYnp-18" value="Stock Available&lt;br&gt;Yes/No" style="shape=partialRectangle;html=1;whiteSpace=wrap;connectable=0;overflow=hidden;fillColor=none;top=0;left=0;bottom=0;right=0;pointerEvents=1;fontStyle=1;fontSize=12;horizontal=1;labelBackgroundColor=none;fontColor=#000000;" vertex="1" parent="dPiHLaE4yrhhuv18jYnp-11">
          <mxGeometry x="610" width="90" height="30" as="geometry">
            <mxRectangle width="90" height="30" as="alternateBounds" />
          </mxGeometry>
        </mxCell>
        <mxCell id="dPiHLaE4yrhhuv18jYnp-19" value="Action" style="shape=partialRectangle;html=1;whiteSpace=wrap;connectable=0;overflow=hidden;fillColor=none;top=0;left=0;bottom=0;right=0;pointerEvents=1;fontStyle=1;fontSize=12;horizontal=1;labelBackgroundColor=none;fontColor=#000000;" vertex="1" parent="dPiHLaE4yrhhuv18jYnp-11">
          <mxGeometry x="700" width="70" height="30" as="geometry">
            <mxRectangle width="70" height="30" as="alternateBounds" />
          </mxGeometry>
        </mxCell>
        <mxCell id="dPiHLaE4yrhhuv18jYnp-20" value="" style="shape=tableRow;horizontal=0;startSize=0;swimlaneHead=0;swimlaneBody=0;top=0;left=0;bottom=0;right=0;collapsible=0;dropTarget=0;fillColor=none;points=[[0,0.5],[1,0.5]];portConstraint=eastwest;" vertex="1" parent="dPiHLaE4yrhhuv18jYnp-10">
          <mxGeometry y="30" width="770" height="40" as="geometry" />
        </mxCell>
        <mxCell id="dPiHLaE4yrhhuv18jYnp-21" value="1001" style="shape=partialRectangle;html=1;whiteSpace=wrap;connectable=0;overflow=hidden;fillColor=none;top=0;left=0;bottom=0;right=0;pointerEvents=1;" vertex="1" parent="dPiHLaE4yrhhuv18jYnp-20">
          <mxGeometry width="60" height="40" as="geometry">
            <mxRectangle width="60" height="40" as="alternateBounds" />
          </mxGeometry>
        </mxCell>
        <mxCell id="dPiHLaE4yrhhuv18jYnp-22" value="ABC" style="shape=partialRectangle;html=1;whiteSpace=wrap;connectable=0;overflow=hidden;fillColor=none;top=0;left=0;bottom=0;right=0;pointerEvents=1;" vertex="1" parent="dPiHLaE4yrhhuv18jYnp-20">
          <mxGeometry x="60" width="90" height="40" as="geometry">
            <mxRectangle width="90" height="40" as="alternateBounds" />
          </mxGeometry>
        </mxCell>
        <mxCell id="dPiHLaE4yrhhuv18jYnp-23" value="22-11-22 11:20 AM" style="shape=partialRectangle;html=1;whiteSpace=wrap;connectable=0;overflow=hidden;fillColor=none;top=0;left=0;bottom=0;right=0;pointerEvents=1;" vertex="1" parent="dPiHLaE4yrhhuv18jYnp-20">
          <mxGeometry x="150" width="80" height="40" as="geometry">
            <mxRectangle width="80" height="40" as="alternateBounds" />
          </mxGeometry>
        </mxCell>
        <mxCell id="dPiHLaE4yrhhuv18jYnp-24" value="50000" style="shape=partialRectangle;html=1;whiteSpace=wrap;connectable=0;overflow=hidden;fillColor=none;top=0;left=0;bottom=0;right=0;pointerEvents=1;" vertex="1" parent="dPiHLaE4yrhhuv18jYnp-20">
          <mxGeometry x="230" width="110" height="40" as="geometry">
            <mxRectangle width="110" height="40" as="alternateBounds" />
          </mxGeometry>
        </mxCell>
        <mxCell id="dPiHLaE4yrhhuv18jYnp-25" value="100000" style="shape=partialRectangle;html=1;whiteSpace=wrap;connectable=0;overflow=hidden;fillColor=none;top=0;left=0;bottom=0;right=0;pointerEvents=1;" vertex="1" parent="dPiHLaE4yrhhuv18jYnp-20">
          <mxGeometry x="340" width="150" height="40" as="geometry">
            <mxRectangle width="150" height="40" as="alternateBounds" />
          </mxGeometry>
        </mxCell>
        <mxCell id="dPiHLaE4yrhhuv18jYnp-26" value="50000" style="shape=partialRectangle;html=1;whiteSpace=wrap;connectable=0;overflow=hidden;fillColor=none;top=0;left=0;bottom=0;right=0;pointerEvents=1;" vertex="1" parent="dPiHLaE4yrhhuv18jYnp-20">
          <mxGeometry x="490" width="120" height="40" as="geometry">
            <mxRectangle width="120" height="40" as="alternateBounds" />
          </mxGeometry>
        </mxCell>
        <mxCell id="dPiHLaE4yrhhuv18jYnp-27" value="Yes" style="shape=partialRectangle;html=1;whiteSpace=wrap;connectable=0;overflow=hidden;fillColor=none;top=0;left=0;bottom=0;right=0;pointerEvents=1;" vertex="1" parent="dPiHLaE4yrhhuv18jYnp-20">
          <mxGeometry x="610" width="90" height="40" as="geometry">
            <mxRectangle width="90" height="40" as="alternateBounds" />
          </mxGeometry>
        </mxCell>
        <mxCell id="dPiHLaE4yrhhuv18jYnp-28" value="Approve/&lt;br&gt;Disapprove" style="shape=partialRectangle;html=1;whiteSpace=wrap;connectable=0;overflow=hidden;fillColor=none;top=0;left=0;bottom=0;right=0;pointerEvents=1;" vertex="1" parent="dPiHLaE4yrhhuv18jYnp-20">
          <mxGeometry x="700" width="70" height="40" as="geometry">
            <mxRectangle width="70" height="40" as="alternateBounds" />
          </mxGeometry>
        </mxCell>
        <mxCell id="dPiHLaE4yrhhuv18jYnp-29" value="" style="shape=tableRow;horizontal=0;startSize=0;swimlaneHead=0;swimlaneBody=0;top=0;left=0;bottom=0;right=0;collapsible=0;dropTarget=0;fillColor=none;points=[[0,0.5],[1,0.5]];portConstraint=eastwest;" vertex="1" parent="dPiHLaE4yrhhuv18jYnp-10">
          <mxGeometry y="70" width="770" height="40" as="geometry" />
        </mxCell>
        <mxCell id="dPiHLaE4yrhhuv18jYnp-30" value="1002" style="shape=partialRectangle;html=1;whiteSpace=wrap;connectable=0;overflow=hidden;fillColor=none;top=0;left=0;bottom=0;right=0;pointerEvents=1;" vertex="1" parent="dPiHLaE4yrhhuv18jYnp-29">
          <mxGeometry width="60" height="40" as="geometry">
            <mxRectangle width="60" height="40" as="alternateBounds" />
          </mxGeometry>
        </mxCell>
        <mxCell id="dPiHLaE4yrhhuv18jYnp-31" value="XYZ" style="shape=partialRectangle;html=1;whiteSpace=wrap;connectable=0;overflow=hidden;fillColor=none;top=0;left=0;bottom=0;right=0;pointerEvents=1;" vertex="1" parent="dPiHLaE4yrhhuv18jYnp-29">
          <mxGeometry x="60" width="90" height="40" as="geometry">
            <mxRectangle width="90" height="40" as="alternateBounds" />
          </mxGeometry>
        </mxCell>
        <mxCell id="dPiHLaE4yrhhuv18jYnp-32" value="22-11-22&lt;br&gt;12:40 PM" style="shape=partialRectangle;html=1;whiteSpace=wrap;connectable=0;overflow=hidden;fillColor=none;top=0;left=0;bottom=0;right=0;pointerEvents=1;" vertex="1" parent="dPiHLaE4yrhhuv18jYnp-29">
          <mxGeometry x="150" width="80" height="40" as="geometry">
            <mxRectangle width="80" height="40" as="alternateBounds" />
          </mxGeometry>
        </mxCell>
        <mxCell id="dPiHLaE4yrhhuv18jYnp-33" value="20000" style="shape=partialRectangle;html=1;whiteSpace=wrap;connectable=0;overflow=hidden;fillColor=none;top=0;left=0;bottom=0;right=0;pointerEvents=1;" vertex="1" parent="dPiHLaE4yrhhuv18jYnp-29">
          <mxGeometry x="230" width="110" height="40" as="geometry">
            <mxRectangle width="110" height="40" as="alternateBounds" />
          </mxGeometry>
        </mxCell>
        <mxCell id="dPiHLaE4yrhhuv18jYnp-34" value="10000" style="shape=partialRectangle;html=1;whiteSpace=wrap;connectable=0;overflow=hidden;fillColor=none;top=0;left=0;bottom=0;right=0;pointerEvents=1;" vertex="1" parent="dPiHLaE4yrhhuv18jYnp-29">
          <mxGeometry x="340" width="150" height="40" as="geometry">
            <mxRectangle width="150" height="40" as="alternateBounds" />
          </mxGeometry>
        </mxCell>
        <mxCell id="dPiHLaE4yrhhuv18jYnp-35" value="-10000" style="shape=partialRectangle;html=1;whiteSpace=wrap;connectable=0;overflow=hidden;fillColor=none;top=0;left=0;bottom=0;right=0;pointerEvents=1;" vertex="1" parent="dPiHLaE4yrhhuv18jYnp-29">
          <mxGeometry x="490" width="120" height="40" as="geometry">
            <mxRectangle width="120" height="40" as="alternateBounds" />
          </mxGeometry>
        </mxCell>
        <mxCell id="dPiHLaE4yrhhuv18jYnp-36" value="Yes" style="shape=partialRectangle;html=1;whiteSpace=wrap;connectable=0;overflow=hidden;fillColor=none;top=0;left=0;bottom=0;right=0;pointerEvents=1;" vertex="1" parent="dPiHLaE4yrhhuv18jYnp-29">
          <mxGeometry x="610" width="90" height="40" as="geometry">
            <mxRectangle width="90" height="40" as="alternateBounds" />
          </mxGeometry>
        </mxCell>
        <mxCell id="dPiHLaE4yrhhuv18jYnp-37" value="Approve/&lt;br&gt;Disapprove" style="shape=partialRectangle;html=1;whiteSpace=wrap;connectable=0;overflow=hidden;fillColor=none;top=0;left=0;bottom=0;right=0;pointerEvents=1;" vertex="1" parent="dPiHLaE4yrhhuv18jYnp-29">
          <mxGeometry x="700" width="70" height="40" as="geometry">
            <mxRectangle width="70" height="40" as="alternateBounds" />
          </mxGeometry>
        </mxCell>
        <mxCell id="dPiHLaE4yrhhuv18jYnp-45" value="" style="edgeStyle=orthogonalEdgeStyle;rounded=0;orthogonalLoop=1;jettySize=auto;html=1;fontSize=12;fontColor=#000000;" edge="1" parent="WIyWlLk6GJQsqaUBKTNV-1" source="dPiHLaE4yrhhuv18jYnp-39" target="dPiHLaE4yrhhuv18jYnp-44">
          <mxGeometry relative="1" as="geometry" />
        </mxCell>
        <mxCell id="dPiHLaE4yrhhuv18jYnp-39" value="Above is the Concept Visual of new Form from Which admin can Approve DO" style="whiteSpace=wrap;html=1;startSize=0;" vertex="1" parent="WIyWlLk6GJQsqaUBKTNV-1">
          <mxGeometry x="271" y="670" width="286" height="60" as="geometry" />
        </mxCell>
        <mxCell id="dPiHLaE4yrhhuv18jYnp-55" value="" style="edgeStyle=orthogonalEdgeStyle;rounded=0;orthogonalLoop=1;jettySize=auto;html=1;fontSize=12;fontColor=#000000;exitX=0.5;exitY=1;exitDx=0;exitDy=0;" edge="1" parent="WIyWlLk6GJQsqaUBKTNV-1" source="dPiHLaE4yrhhuv18jYnp-44" target="dPiHLaE4yrhhuv18jYnp-54">
          <mxGeometry relative="1" as="geometry" />
        </mxCell>
        <mxCell id="dPiHLaE4yrhhuv18jYnp-44" value="Approved /&amp;nbsp;&lt;br&gt;Disapproved" style="rhombus;whiteSpace=wrap;html=1;startSize=0;" vertex="1" parent="WIyWlLk6GJQsqaUBKTNV-1">
          <mxGeometry x="337" y="770" width="154" height="80" as="geometry" />
        </mxCell>
        <mxCell id="dPiHLaE4yrhhuv18jYnp-51" style="edgeStyle=orthogonalEdgeStyle;rounded=0;orthogonalLoop=1;jettySize=auto;html=1;exitX=0;exitY=0.5;exitDx=0;exitDy=0;entryX=0.5;entryY=1;entryDx=0;entryDy=0;fontSize=12;fontColor=#000000;" edge="1" parent="WIyWlLk6GJQsqaUBKTNV-1" source="dPiHLaE4yrhhuv18jYnp-54" target="dPiHLaE4yrhhuv18jYnp-50">
          <mxGeometry relative="1" as="geometry">
            <mxPoint x="150" y="920" as="sourcePoint" />
          </mxGeometry>
        </mxCell>
        <mxCell id="dPiHLaE4yrhhuv18jYnp-57" value="Due To Stock" style="edgeLabel;html=1;align=center;verticalAlign=middle;resizable=0;points=[];fontSize=12;fontColor=#000000;" vertex="1" connectable="0" parent="dPiHLaE4yrhhuv18jYnp-51">
          <mxGeometry x="0.0738" y="2" relative="1" as="geometry">
            <mxPoint as="offset" />
          </mxGeometry>
        </mxCell>
        <mxCell id="dPiHLaE4yrhhuv18jYnp-59" style="edgeStyle=orthogonalEdgeStyle;rounded=0;orthogonalLoop=1;jettySize=auto;html=1;entryX=0;entryY=0.5;entryDx=0;entryDy=0;fontSize=12;fontColor=#000000;exitX=0.5;exitY=0;exitDx=0;exitDy=0;" edge="1" parent="WIyWlLk6GJQsqaUBKTNV-1" source="dPiHLaE4yrhhuv18jYnp-50" target="dPiHLaE4yrhhuv18jYnp-44">
          <mxGeometry relative="1" as="geometry" />
        </mxCell>
        <mxCell id="dPiHLaE4yrhhuv18jYnp-60" value="If Stock Is Available" style="edgeLabel;html=1;align=center;verticalAlign=middle;resizable=0;points=[];fontSize=12;fontColor=#000000;" vertex="1" connectable="0" parent="dPiHLaE4yrhhuv18jYnp-59">
          <mxGeometry x="-0.2062" y="4" relative="1" as="geometry">
            <mxPoint as="offset" />
          </mxGeometry>
        </mxCell>
        <mxCell id="dPiHLaE4yrhhuv18jYnp-50" value="We Can Figure Out&lt;br&gt;will this be in Queue until item again come in Stock" style="whiteSpace=wrap;html=1;startSize=0;" vertex="1" parent="WIyWlLk6GJQsqaUBKTNV-1">
          <mxGeometry x="10" y="850" width="220" height="60" as="geometry" />
        </mxCell>
        <mxCell id="dPiHLaE4yrhhuv18jYnp-54" value="Stock or &lt;br&gt;Credit Limit &amp;amp; Period" style="rhombus;whiteSpace=wrap;html=1;startSize=0;" vertex="1" parent="WIyWlLk6GJQsqaUBKTNV-1">
          <mxGeometry x="339" y="910" width="150" height="90" as="geometry" />
        </mxCell>
        <mxCell id="dPiHLaE4yrhhuv18jYnp-58" value="NO" style="text;html=1;align=center;verticalAlign=middle;resizable=0;points=[];autosize=1;strokeColor=none;fillColor=none;fontSize=12;fontColor=#000000;" vertex="1" parent="WIyWlLk6GJQsqaUBKTNV-1">
          <mxGeometry x="250" y="935" width="40" height="30" as="geometry" />
        </mxCell>
        <mxCell id="dPiHLaE4yrhhuv18jYnp-61" value="No" style="text;html=1;align=center;verticalAlign=middle;resizable=0;points=[];autosize=1;strokeColor=none;fillColor=none;fontSize=12;fontColor=#000000;horizontal=0;" vertex="1" parent="WIyWlLk6GJQsqaUBKTNV-1">
          <mxGeometry x="388" y="865" width="40" height="30" as="geometry" />
        </mxCell>
      </root>
    </mxGraphModel>
  </diagram>
</mxfile>
